#!OML:ASF E:/inclinewalkrobotboard/Project1/Captureday1/Session1/subject1.ASF
:FULLY-SPECIFIED
:DEGREES
388
root 0 0 0 -3.365251313494509 -29.580895219071635 0.8826870255831891
lowerback 11.732651081098924 0.4565388907212004 1.879060579064985
upperback 1.92387736499518 0.7170018947792693 0.8646686515336419
thorax -4.422928187009239 0.32299150473577437 -0.2821814514827223
lowerneck -11.8638004306741 -1.0287041817846834 -3.517865434858451
upperneck 3.2984811893458605 -0.7966087066876764 2.174737261400244
head 2.9957733035418506 -0.41627073281783233 1.1890726462660317
rclavicle -3.0753303231760733E-15 7.600661575117485E-17
rhumerus -7.621822029301004 -1.58528531427722 -69.79572776668758
rradius 14.042053759980327
rwrist 39.99845935060824
rhand -7.585884734121059 18.33333742317899
rfingers 7.125020000000033
rthumb 18.26679019235406 -11.336432837937156
lclavicle 4.589536987324542E-16 -1.392895459896566E-16
lhumerus 15.960700365492102 -34.317077100050234 71.62200198190654
lradius 124.88159057742922
lwrist 52.892635642466736
lhand -26.012552313907086 42.67590551492536
lfingers 7.139525738231878
lthumb 0.6703898827202792 53.00316950168209
rfemur -20.99426665917104 4.783086442959366 15.288168005908235
rtibia 49.51104800551792
rfoot -10.90593298816012 -12.769931461233195
rtoes -2.006244015081108
lfemur -24.36212363823282 1.125653351439352 -11.277937025805143
ltibia 53.18385973063706
lfoot -8.949616097047684 0.6985376127104415
ltoes -9.784512357709218
389
root 0 0 0 -3.3652596063416276 -29.58106837093947 0.8827437960998504
lowerback 11.73269089820751 0.45653229965973724 1.8790535302573719
upperback 1.9239001386969896 0.7169906174754611 0.864670167415561
thorax -4.422925817217401 0.3229858105457707 -0.2821756478961253
lowerneck -11.863759312405346 -1.0286838062215216 -3.5178616001161003
upperneck 3.2984335083701453 -0.7965798623591747 2.1747313820792584
head 2.9957489704910074 -0.41625851357423893 1.1890735712255092
rclavicle -3.075335228306094E-15 7.600664327936656E-17
rhumerus -7.621821004331631 -1.5853200493769322 -69.79571464396297
rradius 14.041992077985611
rwrist 39.998504845651134
rhand -7.585866772606137 18.333366311331996
rfingers 7.125020000000033
rthumb 18.266807641482586 -11.336404475090141
lclavicle 4.589476808640375E-16 -1.3928549004747302E-16
lhumerus 15.960719398192776 -34.31709748564667 71.62200041301607
lradius 124.88164227840738
lwrist 52.892677320174215
lhand -26.01255973845195 42.675918125145856
lfingers 7.139525795985268
lthumb 0.6703829539908224 53.003163392953184
rfemur -20.994427482074236 4.783056997317796 15.288088651381361
rtibia 49.51117281890141
rfoot -10.90585987920246 -12.769912077315686
rtoes -2.0062585559590755
lfemur -24.362220589751267 1.12565760078907 -11.27790917718039
ltibia 53.18396005238192
lfoot -8.949543363555122 0.6984605902517185
ltoes -9.784550925160952
390
root 0 0 0 -3.3652674438028933 -29.5812301578748 0.8827961612139243
lowerback 11.732728107757746 0.45652611825475314 1.8790469018308873
upperback 1.9239212649801323 0.7169800546941871 0.8646716274267974
thorax -4.422923771757027 0.32298047621750636 -0.2821701491475735
lowerneck -11.863721286814108 -1.0286655023619584 -3.517858407675574
upperneck 3.2983880725766586 -0.7965539247976632 2.1747267749020507
head 2.9957261006057836 -0.41624756327489965 1.189074698112774
rclavicle -3.075339830036967E-15 7.600667558552233E-17
rhumerus -7.62182027665218 -1.585352562455956 -69.79570244786814
rradius 14.04193405733303
rwrist 39.9985476227944
rhand -7.5858498271813435 18.333393495782936
rfingers 7.125020000000033
rthumb 18.266824100324207 -11.33637778204707
lclavicle 4.589419946822231E-16 -1.3928172295746858E-16
lhumerus 15.96073635596062 -34.31711638046284 71.6219993207145
lradius 124.88168946301008
lwrist 52.89271513114623
lhand -26.01256630198398 42.67592961586078
lfingers 7.139525848891949
lthumb 0.6703768364138423 53.00315786197846
rfemur -20.99457400657573 4.783030220587743 15.288016323388762
rtibia 49.51128622309366
rfoot -10.9057934690767 -12.769894730951755
rtoes -2.0062718227942637
lfemur -24.362310994954736 1.1256619477956842 -11.277883325823318
ltibia 53.184054044661636
lfoot -8.949476033412324 0.6983890355474323
ltoes -9.784586855871991
391
root 0 0 0 -3.365274832903932 -29.581381143384093 0.8828444410353636
lowerback 11.73276283964486 0.4565203305732069 1.879040679902716
upperback 1.9239408492352044 0.7169701760515697 0.86467302727652
thorax -4.422922009209325 0.32297548657107955 -0.28216495255467616
lowerneck -11.863686140166482 -1.0286490570284352 -3.5178557668267216
upperneck 3.298344901473751 -0.7965305973399657 2.174723243758452
head 2.995704640704658 -0.41623774872376695 1.18907597753368
rclavicle -3.0753441415698924E-15 7.600671139958329E-17
rhumerus -7.621819794583676 -1.585382965599024 -69.79569111812386
rradius 14.041879560910488
rwrist 39.9985877871062
rhand -7.585833868606846 18.33341903891892
rfingers 7.125020000000033
rthumb 18.266839597901388 -11.336352698152048
lclavicle 4.5893663293580555E-16 -1.39278226872563E-16
lhumerus 15.960751474411278 -34.31713387549617 71.62199861828371
lradius 124.88173252470068
lwrist 52.8927494415983
lhand -26.012572107214005 42.675940087046506
lfingers 7.1395258973563465
lthumb 0.6703714324790102 53.003152852762646
rfemur -20.99470748922859 4.783005870100132 15.287950408749335
rtibia 49.511389256207835
rfoot -10.90573314730423 -12.76987921205623
rtoes -2.006283923295504
lfemur -24.362395220567734 1.1256663320246068 -11.277859342972413
ltibia 53.184141997536834
lfoot -8.949413734120798 0.6983226055342904
ltoes -9.784620301505765
392
root 0 0 0 -3.365281783960179 -29.581521888679248 0.8828889352129616
lowerback 11.732795222749745 0.4565149197881086 1.879034849268623
upperback 1.9239589917768813 0.7169609501730915 0.8646743640906207
thorax -4.422920493079435 0.3229708259075995 -0.2821600529732344
lowerneck -11.863653671239458 -1.0286342787124156 -3.5178535983335295
upperneck 3.298303990182383 -0.7965096132726543 2.1747206183319516
head 2.9956845343112235 -0.41622895050842956 1.1890773676864081
rclavicle -3.07534817621891E-15 7.600674961619676E-17
rhumerus -7.62181951417641 -1.5854113689230722 -69.79568059799725
rradius 14.04182844502494
rwrist 39.998625447815144
rhand -7.585818864007651 18.333443006453166
rfingers 7.125020000000033
rthumb 18.26685416667619 -11.336329159387539
lclavicle 4.589315869614836E-16 -1.3927498475277788E-16
lhumerus 15.960764961808223 -34.31715005961077 71.62199823256731
lradius 124.88177182410625
lwrist 52.89278058321928
lhand -26.0125772445431 42.67594962997319
lfingers 7.139525941749538
lthumb 0.6703666564353519 53.00314831472539
rfemur -20.99482907343335 4.782983727757888 15.287890348091809
rtibia 49.51148285700668
rfoot -10.905678362276653 -12.769865332196728
rtoes -2.0062949579361335
lfemur -24.36247361660073 1.1256707019389807 -11.27783710760015
ltibia 53.18422419505386
lfoot -8.949356117925188 0.698260976904983
ltoes -9.784651406373868
393
root 0 0 0 -3.3652883097840753 -29.581652947219116 0.8829299235697616
lowerback 11.732825383835678 0.45650986854980274 1.87902939385913
upperback 1.9239757877457782 0.716952345247361 0.8646756361766148
thorax -4.422919191286258 0.32296647828980485 -0.28215544334558934
lowerneck -11.863623691147279 -1.0286209955536438 -3.5178518330959294
upperneck 3.2982653139321023 -0.7964907330519653 2.1747187510600634
head 2.995665722838697 -0.41622106168370254 1.1890788333727182
rclavicle -3.0753519472656143E-15 7.600678925902873E-17
rhumerus -7.621819398263625 -1.585437879948124 -69.79567083418135
rradius 14.04178056171051
rwrist 39.998660716692726
rhand -7.585804777756266 18.33346546629615
rfingers 7.125020000000033
rthumb 18.26686784170502 -11.336307099495965
lclavicle 4.589268468829403E-16 -1.3927198036902433E-16
lhumerus 15.960777001643415 -34.31716501884619 71.62199810231701
lradius 124.88180769070658
lwrist 52.89280885553207
lhand -26.012581793219905 42.67595832772018
lfingers 7.139525982411594
lthumb 0.6703624331804559 53.003144202301335
rfemur -20.994939799275716 4.782963597226203 15.287835631526876
rtibia 49.51156787473315
rfoot -10.90562861508221 -12.769852922283395
rtoes -2.0063050198009518
lfemur -24.362546519345393 1.1256750145789378 -11.277816505441349
ltibia 53.18430091786834
lfoot -8.949302858954724 0.6982038433303055
ltoes -9.784680308666278
